<svg xmlns="http://www.w3.org/2000/svg" viewBox="0 0 200 150" width="200" height="150">
  <defs>
    <linearGradient id="bowlGradient" x1="0%" y1="0%" x2="0%" y2="100%">
      <stop offset="0%" stop-color="#F4E4BC"/>
      <stop offset="30%" stop-color="#DEB887"/>
      <stop offset="70%" stop-color="#CD853F"/>
      <stop offset="100%" stop-color="#8B7355"/>
    </linearGradient>
    <radialGradient id="rimGradient" cx="50%" cy="30%" r="60%">
      <stop offset="0%" stop-color="#F5F5DC"/>
      <stop offset="80%" stop-color="#DEB887"/>
      <stop offset="100%" stop-color="#8B7355"/>
    </radialGradient>
    <filter id="shadow" x="-50%" y="-50%" width="200%" height="200%">
      <feDropShadow dx="2" dy="3" stdDeviation="3" flood-opacity="0.3"/>
    </filter>
  </defs>
  
  <!-- Bowl shadow -->
  <ellipse cx="100" cy="140" rx="70" ry="8" fill="#000" opacity="0.2"/>
  
  <!-- Main bowl body -->
  <path d="M 40 60 Q 40 120 100 130 Q 160 120 160 60 Q 160 50 100 50 Q 40 50 40 60 Z" 
        fill="url(#bowlGradient)" filter="url(#shadow)"/>
  
  <!-- Bowl rim -->
  <ellipse cx="100" cy="60" rx="60" ry="8" fill="url(#rimGradient)"/>
  
  <!-- Inner rim highlight -->
  <ellipse cx="100" cy="62" rx="55" ry="6" fill="#F5F5DC" opacity="0.4"/>
  
  <!-- Bowl interior -->
  <ellipse cx="100" cy="65" rx="50" ry="5" fill="#8B7355" opacity="0.6"/>
  
  <!-- Decorative pattern on bowl -->
  <g stroke="#8B7355" stroke-width="1" fill="none" opacity="0.3">
    <path d="M 60 80 Q 100 85 140 80"/>
    <path d="M 65 90 Q 100 95 135 90"/>
    <path d="M 70 100 Q 100 105 130 100"/>
    <path d="M 75 110 Q 100 115 125 110"/>
  </g>
  
  <!-- Bowl handles -->
  <ellipse cx="35" cy="75" rx="8" ry="15" fill="url(#bowlGradient)" 
           transform="rotate(-15 35 75)" filter="url(#shadow)"/>
  <ellipse cx="165" cy="75" rx="8" ry="15" fill="url(#bowlGradient)" 
           transform="rotate(15 165 75)" filter="url(#shadow)"/>
  
  <!-- Handle highlights -->
  <ellipse cx="33" cy="70" rx="3" ry="8" fill="#F5F5DC" opacity="0.6" 
           transform="rotate(-15 33 70)"/>
  <ellipse cx="167" cy="70" rx="3" ry="8" fill="#F5F5DC" opacity="0.6" 
           transform="rotate(15 167 70)"/>
  
  <!-- Shine effect -->
  <ellipse cx="80" cy="70" rx="15" ry="8" fill="#FFF" opacity="0.3"/>
</svg>