<svg xmlns="http://www.w3.org/2000/svg" viewBox="0 0 200 200" width="200" height="200">
  <defs>
    <radialGradient id="ballGradient" cx="0.3" cy="0.3" r="0.8">
      <stop offset="0%" stop-color="#FF6B35"/>
      <stop offset="40%" stop-color="#D2451F"/>
      <stop offset="100%" stop-color="#B8371A"/>
    </radialGradient>
    <filter id="shadow" x="-50%" y="-50%" width="200%" height="200%">
      <feDropShadow dx="3" dy="3" stdDeviation="3" flood-opacity="0.3"/>
    </filter>
  </defs>
  
  <!-- Ball shadow -->
  <ellipse cx="100" cy="180" rx="60" ry="10" fill="#000" opacity="0.2"/>
  
  <!-- Main ball -->
  <circle cx="100" cy="100" r="80" fill="url(#ballGradient)" filter="url(#shadow)"/>
  
  <!-- Cricket ball seam -->
  <path d="M 100 20 Q 120 40 140 60 Q 160 80 180 100 Q 160 120 140 140 Q 120 160 100 180" 
        stroke="#8B0000" stroke-width="3" fill="none" stroke-linecap="round"/>
  <path d="M 100 20 Q 80 40 60 60 Q 40 80 20 100 Q 40 120 60 140 Q 80 160 100 180" 
        stroke="#8B0000" stroke-width="3" fill="none" stroke-linecap="round"/>
  
  <!-- Seam stitching -->
  <g stroke="#8B0000" stroke-width="1.5" stroke-linecap="round">
    <line x1="95" y1="25" x2="105" y2="25"/>
    <line x1="90" y1="35" x2="110" y2="35"/>
    <line x1="85" y1="45" x2="115" y2="45"/>
    <line x1="80" y1="55" x2="120" y2="55"/>
    <line x1="75" y1="65" x2="125" y2="65"/>
    <line x1="70" y1="75" x2="130" y2="75"/>
    <line x1="65" y1="85" x2="135" y2="85"/>
    <line x1="62" y1="95" x2="138" y2="95"/>
    <line x1="62" y1="105" x2="138" y2="105"/>
    <line x1="65" y1="115" x2="135" y2="115"/>
    <line x1="70" y1="125" x2="130" y2="125"/>
    <line x1="75" y1="135" x2="125" y2="135"/>
    <line x1="80" y1="145" x2="120" y2="145"/>
    <line x1="85" y1="155" x2="115" y2="155"/>
    <line x1="90" y1="165" x2="110" y2="165"/>
    <line x1="95" y1="175" x2="105" y2="175"/>
  </g>
  
  <!-- Highlight -->
  <ellipse cx="85" cy="70" rx="15" ry="8" fill="#FFA366" opacity="0.6"/>
</svg>
